<svg width="38" height="46" viewBox="0 0 38 46" fill="none" xmlns="http://www.w3.org/2000/svg">
<path d="M7.77266 15.915C3.48733 15.915 0 12.3447 0 7.95748C0 3.57026 3.48733 0 7.77266 0C9.83177 0.00280074 11.8059 0.840863 13.2627 2.33066C14.7195 3.82046 15.5403 5.84058 15.5453 7.94864C15.5449 8.18299 15.4537 8.40761 15.2919 8.57333C15.13 8.73904 14.9106 8.83234 14.6817 8.83281L9.62601 8.83811L12.8819 12.7974C13.0284 12.977 13.0996 13.2086 13.0802 13.4417C13.0608 13.6748 12.9523 13.8907 12.7783 14.0423C11.3773 15.2508 9.60459 15.914 7.77266 15.915ZM7.77266 1.76833C4.43905 1.76833 1.72726 4.54461 1.72726 7.95748C1.72939 9.06036 2.019 10.1427 2.56621 11.0927C3.11341 12.0427 3.89837 12.8259 4.84004 13.3616C5.78172 13.8972 6.84597 14.1659 7.92294 14.1397C8.9999 14.1136 10.0505 13.7937 10.9664 13.213L7.11285 8.52689C7.00725 8.39802 6.93966 8.24104 6.91799 8.07429C6.89633 7.90755 6.92148 7.73793 6.9905 7.58528C7.05953 7.43263 7.16958 7.30326 7.30778 7.21228C7.44599 7.12131 7.60663 7.07249 7.77094 7.07155L13.7542 7.06448C13.5433 5.59402 12.8232 4.25015 11.7252 3.27794C10.6271 2.30573 9.22436 1.76996 7.77266 1.76833Z" fill="#6EFF24"/>
<path d="M7.77266 8.84161C7.54362 8.84161 7.32395 8.74846 7.16199 8.58264C7.00002 8.41683 6.90903 8.19194 6.90903 7.95745V4.42079C6.90903 4.18629 7.00002 3.9614 7.16199 3.79559C7.32395 3.62977 7.54362 3.53662 7.77266 3.53662C8.00171 3.53662 8.22138 3.62977 8.38334 3.79559C8.5453 3.9614 8.63629 4.18629 8.63629 4.42079V7.95745C8.63629 8.19194 8.5453 8.41683 8.38334 8.58264C8.22138 8.74846 8.00171 8.84161 7.77266 8.84161Z" fill="#6EFF24"/>
<path d="M7.77266 12.3782C7.54362 12.3782 7.32395 12.2851 7.16199 12.1193C7.00002 11.9535 6.90903 11.7286 6.90903 11.4941V7.95741C6.90903 7.72291 7.00002 7.49802 7.16199 7.33221C7.32395 7.1664 7.54362 7.07324 7.77266 7.07324C8.00171 7.07324 8.22138 7.1664 8.38334 7.33221C8.5453 7.49802 8.63629 7.72291 8.63629 7.95741V11.4941C8.63629 11.7286 8.5453 11.9535 8.38334 12.1193C8.22138 12.2851 8.00171 12.3782 7.77266 12.3782Z" fill="#6EFF24"/>
<path d="M7.77266 8.84157H4.31814C4.08909 8.84157 3.86943 8.74842 3.70746 8.58261C3.5455 8.41679 3.45451 8.1919 3.45451 7.95741C3.45451 7.72291 3.5455 7.49802 3.70746 7.33221C3.86943 7.1664 4.08909 7.07324 4.31814 7.07324H7.77266C8.00171 7.07324 8.22138 7.1664 8.38334 7.33221C8.5453 7.49802 8.63629 7.72291 8.63629 7.95741C8.63629 8.1919 8.5453 8.41679 8.38334 8.58261C8.22138 8.74842 8.00171 8.84157 7.77266 8.84157Z" fill="#6EFF24"/>
<path d="M7.77266 8.84178C7.60199 8.84174 7.43514 8.78993 7.29321 8.69288C7.15127 8.59584 7.0406 8.45791 6.97518 8.29652C6.90976 8.13513 6.89251 7.95751 6.92562 7.78609C6.95873 7.61467 7.04072 7.45714 7.16121 7.33339L9.60356 4.8312C9.76644 4.67015 9.98459 4.58103 10.211 4.58304C10.4375 4.58506 10.6541 4.67804 10.8142 4.84197C10.9743 5.00591 11.0652 5.22766 11.0671 5.45949C11.0691 5.69132 10.982 5.91466 10.8247 6.08141L8.38411 8.58183C8.30391 8.6642 8.20861 8.72957 8.10369 8.77417C7.99876 8.81878 7.88627 8.84175 7.77266 8.84178Z" fill="#6EFF24"/>
<path d="M5.33033 11.3423C5.15965 11.3422 4.99281 11.2904 4.85087 11.1934C4.70893 11.0963 4.59827 10.9584 4.53284 10.797C4.46742 10.6356 4.45018 10.458 4.48329 10.2866C4.5164 10.1152 4.59838 9.95763 4.71888 9.83388L7.16122 7.33169C7.3241 7.17063 7.54226 7.08152 7.7687 7.08353C7.99514 7.08554 8.21175 7.17853 8.37187 7.34246C8.532 7.50639 8.62282 7.72815 8.62479 7.95998C8.62676 8.1918 8.53971 8.41515 8.38239 8.5819L5.94005 11.0823C5.86033 11.1649 5.76537 11.2304 5.6607 11.275C5.55602 11.3196 5.44372 11.3425 5.33033 11.3423Z" fill="#6EFF24"/>
<path d="M7.77266 8.84178C7.54353 8.84181 7.32371 8.74899 7.16122 8.5836L4.71887 6.08141C4.56155 5.91466 4.47451 5.69132 4.47647 5.45949C4.47844 5.22766 4.56927 5.00591 4.72939 4.84197C4.88952 4.67804 5.10612 4.58506 5.33257 4.58304C5.55901 4.58103 5.77716 4.67015 5.94004 4.8312L8.38411 7.33162C8.50521 7.45528 8.58771 7.61296 8.62116 7.78468C8.65461 7.9564 8.63751 8.13443 8.57201 8.29618C8.50652 8.45794 8.39559 8.59614 8.25328 8.69327C8.11097 8.7904 7.9437 8.84209 7.77266 8.84178Z" fill="#6EFF24"/>
<path d="M7.77266 8.84161C7.54362 8.84161 7.32395 8.74846 7.16199 8.58264C7.00002 8.41683 6.90903 8.19194 6.90903 7.95745V4.42079C6.90903 4.18629 7.00002 3.9614 7.16199 3.79559C7.32395 3.62977 7.54362 3.53662 7.77266 3.53662C8.00171 3.53662 8.22138 3.62977 8.38334 3.79559C8.5453 3.9614 8.63629 4.18629 8.63629 4.42079V7.95745C8.63629 8.19194 8.5453 8.41683 8.38334 8.58264C8.22138 8.74846 8.00171 8.84161 7.77266 8.84161Z" fill="#6EFF24"/>
<path d="M7.77266 12.3782C7.54362 12.3782 7.32395 12.2851 7.16199 12.1193C7.00002 11.9535 6.90903 11.7286 6.90903 11.4941V7.95741C6.90903 7.72291 7.00002 7.49802 7.16199 7.33221C7.32395 7.1664 7.54362 7.07324 7.77266 7.07324C8.00171 7.07324 8.22138 7.1664 8.38334 7.33221C8.5453 7.49802 8.63629 7.72291 8.63629 7.95741V11.4941C8.63629 11.7286 8.5453 11.9535 8.38334 12.1193C8.22138 12.2851 8.00171 12.3782 7.77266 12.3782Z" fill="#6EFF24"/>
<path d="M7.77266 8.84157H4.31814C4.08909 8.84157 3.86943 8.74842 3.70746 8.58261C3.5455 8.41679 3.45451 8.1919 3.45451 7.95741C3.45451 7.72291 3.5455 7.49802 3.70746 7.33221C3.86943 7.1664 4.08909 7.07324 4.31814 7.07324H7.77266C8.00171 7.07324 8.22138 7.1664 8.38334 7.33221C8.5453 7.49802 8.63629 7.72291 8.63629 7.95741C8.63629 8.1919 8.5453 8.41679 8.38334 8.58261C8.22138 8.74842 8.00171 8.84157 7.77266 8.84157Z" fill="#6EFF24"/>
<path d="M7.77266 8.84178C7.60199 8.84174 7.43514 8.78993 7.29321 8.69288C7.15127 8.59584 7.0406 8.45791 6.97518 8.29652C6.90976 8.13513 6.89251 7.95751 6.92562 7.78609C6.95873 7.61467 7.04072 7.45714 7.16121 7.33339L9.60356 4.8312C9.76644 4.67015 9.98459 4.58103 10.211 4.58304C10.4375 4.58506 10.6541 4.67804 10.8142 4.84197C10.9743 5.00591 11.0652 5.22766 11.0671 5.45949C11.0691 5.69132 10.982 5.91466 10.8247 6.08141L8.38411 8.58183C8.30391 8.6642 8.20861 8.72957 8.10369 8.77417C7.99876 8.81878 7.88627 8.84175 7.77266 8.84178Z" fill="#6EFF24"/>
<path d="M5.33033 11.3423C5.15965 11.3422 4.99281 11.2904 4.85087 11.1934C4.70893 11.0963 4.59827 10.9584 4.53284 10.797C4.46742 10.6356 4.45018 10.458 4.48329 10.2866C4.5164 10.1152 4.59838 9.95763 4.71888 9.83388L7.16122 7.33169C7.3241 7.17063 7.54226 7.08152 7.7687 7.08353C7.99514 7.08554 8.21175 7.17853 8.37187 7.34246C8.532 7.50639 8.62282 7.72815 8.62479 7.95998C8.62676 8.1918 8.53971 8.41515 8.38239 8.5819L5.94005 11.0823C5.86033 11.1649 5.76537 11.2304 5.6607 11.275C5.55602 11.3196 5.44372 11.3425 5.33033 11.3423Z" fill="#6EFF24"/>
<path d="M7.77266 8.84165C7.54353 8.84168 7.32371 8.74886 7.16122 8.58347L4.71887 6.08129C4.56155 5.91453 4.47451 5.69119 4.47647 5.45936C4.47844 5.22754 4.56927 5.00578 4.72939 4.84185C4.88952 4.67792 5.10612 4.58493 5.33257 4.58291C5.55901 4.5809 5.77716 4.67002 5.94004 4.83108L8.38411 7.3315C8.50521 7.45515 8.58771 7.61284 8.62116 7.78456C8.65461 7.95628 8.63751 8.1343 8.57201 8.29605C8.50652 8.45781 8.39559 8.59601 8.25328 8.69315C8.11097 8.79028 7.9437 8.84196 7.77266 8.84165ZM30.0543 8.84165C29.9131 8.84148 29.7742 8.80596 29.6495 8.73818C29.5248 8.6704 29.4182 8.57243 29.339 8.4528C29.2598 8.33318 29.2104 8.19553 29.1951 8.05187C29.1798 7.9082 29.199 7.76288 29.2511 7.62858L32.0147 0.555256C32.0789 0.391354 32.1895 0.250873 32.3324 0.151912C32.4752 0.0529504 32.6437 4.10959e-05 32.8162 0H37.1343C37.3634 0 37.583 0.093153 37.745 0.258966C37.907 0.424779 37.998 0.64967 37.998 0.884165C37.998 1.11866 37.907 1.34355 37.745 1.50936C37.583 1.67518 37.3634 1.76833 37.1343 1.76833H33.4L30.854 8.28639C30.7904 8.45029 30.6801 8.59085 30.5375 8.68985C30.3949 8.78885 30.2266 8.84173 30.0543 8.84165Z" fill="#6EFF24"/>
<path d="M22.4544 45.9997C22.2253 45.9997 22.0056 45.9066 21.8437 45.7408C21.6817 45.575 21.5907 45.3501 21.5907 45.1156V25.664C21.5907 25.4295 21.6817 25.2046 21.8437 25.0388C22.0056 24.8729 22.2253 24.7798 22.4544 24.7798C22.6834 24.7798 22.9031 24.8729 23.065 25.0388C23.227 25.2046 23.318 25.4295 23.318 25.664V45.1156C23.318 45.3501 23.227 45.575 23.065 45.7408C22.9031 45.9066 22.6834 45.9997 22.4544 45.9997Z" fill="white"/>
<path d="M31.9543 45.9996H12.9544C12.7254 45.9996 12.5057 45.9065 12.3438 45.7407C12.1818 45.5748 12.0908 45.3499 12.0908 45.1155C12.0908 44.881 12.1818 44.6561 12.3438 44.4903C12.5057 44.3244 12.7254 44.2313 12.9544 44.2313H31.9543C32.1833 44.2313 32.403 44.3244 32.565 44.4903C32.7269 44.6561 32.8179 44.881 32.8179 45.1155C32.8179 45.3499 32.7269 45.5748 32.565 45.7407C32.403 45.9065 32.1833 45.9996 31.9543 45.9996ZM22.4544 26.5356C22.3292 26.5357 22.2055 26.5079 22.0919 26.4541C21.9782 26.4004 21.8774 26.322 21.7963 26.2244L7.11458 8.54109C7.00771 8.41249 6.93904 8.25525 6.91669 8.08796C6.89434 7.92067 6.91925 7.75033 6.98846 7.59708C7.05768 7.44382 7.16831 7.31406 7.30728 7.22314C7.44625 7.13221 7.60774 7.08392 7.77266 7.08398H37.1361C37.301 7.08392 37.4625 7.13221 37.6014 7.22314C37.7404 7.31406 37.851 7.44382 37.9203 7.59708C37.9895 7.75033 38.0144 7.92067 37.992 8.08796C37.9697 8.25525 37.901 8.41249 37.7941 8.54109L23.1124 26.2244C23.0313 26.322 22.9305 26.4004 22.8168 26.4541C22.7032 26.5079 22.5795 26.5357 22.4544 26.5356ZM9.63983 8.85231L22.4544 24.2863L35.2689 8.85231H9.63983Z" fill="white"/>
<path d="M31.0907 15.926H13.8181C13.589 15.926 13.3693 15.8329 13.2074 15.6671C13.0454 15.5013 12.9544 15.2764 12.9544 15.0419C12.9544 14.8074 13.0454 14.5825 13.2074 14.4167C13.3693 14.2509 13.589 14.1577 13.8181 14.1577H31.0907C31.3197 14.1577 31.5394 14.2509 31.7013 14.4167C31.8633 14.5825 31.9543 14.8074 31.9543 15.0419C31.9543 15.2764 31.8633 15.5013 31.7013 15.6671C31.5394 15.8329 31.3197 15.926 31.0907 15.926Z" fill="white"/>
<path d="M19.8635 19.4754C20.3404 19.4754 20.7271 19.0795 20.7271 18.5912C20.7271 18.1029 20.3404 17.707 19.8635 17.707C19.3865 17.707 18.9998 18.1029 18.9998 18.5912C18.9998 19.0795 19.3865 19.4754 19.8635 19.4754Z" fill="white"/>
<path d="M25.0453 21.8782C25.5222 21.8782 25.9089 21.4823 25.9089 20.994C25.9089 20.5057 25.5222 20.1099 25.0453 20.1099C24.5683 20.1099 24.1816 20.5057 24.1816 20.994C24.1816 21.4823 24.5683 21.8782 25.0453 21.8782Z" fill="white"/>
<path d="M21.5907 23.8958C22.0677 23.8958 22.4544 23.4999 22.4544 23.0116C22.4544 22.5233 22.0677 22.1274 21.5907 22.1274C21.1138 22.1274 20.7271 22.5233 20.7271 23.0116C20.7271 23.4999 21.1138 23.8958 21.5907 23.8958Z" fill="white"/>
<path d="M23.318 18.5906C23.795 18.5906 24.1816 18.1947 24.1816 17.7064C24.1816 17.2181 23.795 16.8223 23.318 16.8223C22.841 16.8223 22.4544 17.2181 22.4544 17.7064C22.4544 18.1947 22.841 18.5906 23.318 18.5906Z" fill="white"/>
<path d="M22.4544 45.9997C22.2253 45.9997 22.0056 45.9066 21.8437 45.7408C21.6817 45.575 21.5907 45.3501 21.5907 45.1156V25.664C21.5907 25.4295 21.6817 25.2046 21.8437 25.0388C22.0056 24.8729 22.2253 24.7798 22.4544 24.7798C22.6834 24.7798 22.9031 24.8729 23.065 25.0388C23.227 25.2046 23.318 25.4295 23.318 25.664V45.1156C23.318 45.3501 23.227 45.575 23.065 45.7408C22.9031 45.9066 22.6834 45.9997 22.4544 45.9997Z" fill="white"/>
<path d="M31.9543 46H12.9544C12.7254 46 12.5057 45.9069 12.3438 45.7411C12.1818 45.5753 12.0908 45.3504 12.0908 45.1159C12.0908 44.8814 12.1818 44.6565 12.3438 44.4907C12.5057 44.3249 12.7254 44.2317 12.9544 44.2317H31.9543C32.1833 44.2317 32.403 44.3249 32.565 44.4907C32.7269 44.6565 32.8179 44.8814 32.8179 45.1159C32.8179 45.3504 32.7269 45.5753 32.565 45.7411C32.403 45.9069 32.1833 46 31.9543 46ZM31.0907 15.926H13.8181C13.589 15.926 13.3694 15.8329 13.2074 15.6671C13.0454 15.5013 12.9544 15.2764 12.9544 15.0419C12.9544 14.8074 13.0454 14.5825 13.2074 14.4167C13.3694 14.2509 13.589 14.1577 13.8181 14.1577H31.0907C31.3197 14.1577 31.5394 14.2509 31.7013 14.4167C31.8633 14.5825 31.9543 14.8074 31.9543 15.0419C31.9543 15.2764 31.8633 15.5013 31.7013 15.6671C31.5394 15.8329 31.3197 15.926 31.0907 15.926Z" fill="white"/>
<path d="M19.8635 19.4754C20.3404 19.4754 20.7271 19.0795 20.7271 18.5912C20.7271 18.1029 20.3404 17.707 19.8635 17.707C19.3865 17.707 18.9998 18.1029 18.9998 18.5912C18.9998 19.0795 19.3865 19.4754 19.8635 19.4754Z" fill="white"/>
<path d="M25.0453 21.8782C25.5222 21.8782 25.9089 21.4823 25.9089 20.994C25.9089 20.5057 25.5222 20.1099 25.0453 20.1099C24.5683 20.1099 24.1816 20.5057 24.1816 20.994C24.1816 21.4823 24.5683 21.8782 25.0453 21.8782Z" fill="white"/>
<path d="M21.5907 23.8958C22.0677 23.8958 22.4544 23.4999 22.4544 23.0116C22.4544 22.5233 22.0677 22.1274 21.5907 22.1274C21.1138 22.1274 20.7271 22.5233 20.7271 23.0116C20.7271 23.4999 21.1138 23.8958 21.5907 23.8958Z" fill="white"/>
<path d="M23.318 18.5906C23.795 18.5906 24.1816 18.1947 24.1816 17.7064C24.1816 17.2181 23.795 16.8223 23.318 16.8223C22.841 16.8223 22.4544 17.2181 22.4544 17.7064C22.4544 18.1947 22.841 18.5906 23.318 18.5906Z" fill="white"/>
</svg>
