<svg width="197" height="78" viewBox="0 0 197 78" fill="none" xmlns="http://www.w3.org/2000/svg">
<path d="M25.9144 44.1261L25.8348 40.1205L25.9144 35.8522H35.5224H45.1304V47.0132V58.174H27.3913H9.91304L8.70425 55.6832C8.01121 54.383 5.76903 50.0641 3.72204 46.0853L0 38.8513L4.88659 29.4062L10.0435 19.8262H27.3913H45.1304V26.2632V32.7003H38.8085H32.4866V31.5183V30.3363L25.572 30.3432L18.6573 30.35L16.5118 34.6114L14.3661 38.8728L16.4974 43.1411L18.6284 47.4093H25.6892H32.75L32.7002 45.7677L32.6504 44.1261H25.9144Z" fill="white"/>
<path d="M133.697 32.7392V29.8696H120.523V32.2175L146.48 38.4783V58.0436H107.219V45.261H119.74V47.7392H133.306V45.261L107.219 39.0001V19.8262H146.48V32.7392H133.697Z" fill="white"/>
<path d="M169.155 19.8262H156.521V43.0103C156.521 48.1484 162.175 58.174 175.785 58.174C189.394 58.174 196.174 47.7725 196.174 43.0103V19.8262H183.54V41.3812C183.54 43.6369 181.689 47.7725 175.785 47.7725C169.881 47.7725 169.155 43.6369 169.155 41.3812V19.8262Z" fill="white"/>
<path fill-rule="evenodd" clip-rule="evenodd" d="M56.8698 19.8262C54.9969 19.8262 53.4785 21.3445 53.4785 23.2175V54.7827C53.4785 56.6557 54.9969 58.174 56.8698 58.174H96.522C98.395 58.174 99.9133 56.6557 99.9133 54.7827V23.2175C99.9133 21.3445 98.395 19.8262 96.522 19.8262H56.8698ZM58.1742 25.3044C59.0386 25.3044 59.7394 24.6037 59.7394 23.7392C59.7394 22.8748 59.0386 22.174 58.1742 22.174C57.3097 22.174 56.609 22.8748 56.609 23.7392C56.609 24.6037 57.3097 25.3044 58.1742 25.3044ZM59.7394 54.261C59.7394 55.1254 59.0386 55.8262 58.1742 55.8262C57.3097 55.8262 56.609 55.1254 56.609 54.261C56.609 53.3965 57.3097 52.6957 58.1742 52.6957C59.0386 52.6957 59.7394 53.3965 59.7394 54.261ZM95.2176 25.3044C96.0821 25.3044 96.7829 24.6037 96.7829 23.7392C96.7829 22.8748 96.0821 22.174 95.2176 22.174C94.3532 22.174 93.6524 22.8748 93.6524 23.7392C93.6524 24.6037 94.3532 25.3044 95.2176 25.3044ZM96.7829 54.261C96.7829 55.1254 96.0821 55.8262 95.2176 55.8262C94.3532 55.8262 93.6524 55.1254 93.6524 54.261C93.6524 53.3965 94.3532 52.6957 95.2176 52.6957C96.0821 52.6957 96.7829 53.3965 96.7829 54.261ZM76.6968 56.0871C86.0616 56.0871 93.6533 48.4954 93.6533 39.1306C93.6533 29.7658 86.0616 22.1741 76.6968 22.1741C67.3319 22.1741 59.7402 29.7658 59.7402 39.1306C59.7402 48.4954 67.3319 56.0871 76.6968 56.0871Z" fill="white"/>
<path d="M72.2221 44.5643C73.1351 45.1295 75.2221 46.3382 76.2656 46.6513C75.4308 46.6513 73.8308 46.3034 73.1351 46.1295C73.8743 46.6947 75.6656 47.8252 76.9178 47.8252C75.7699 47.8252 74.0047 47.7382 73.2656 47.6947C74.3091 48.26 76.683 49.3904 77.8308 49.3904C76.4743 49.3904 74.2221 49.4774 73.2656 49.5208C73.9612 49.9121 76.1873 50.6687 79.5264 50.5643C78.9004 50.9817 75.4395 51.173 73.7873 51.2165C74.2656 51.5643 76.396 52.2339 81.0917 52.1295C79.8395 52.6513 75.9612 52.9556 74.1786 53.0426C74.5699 53.4339 76.7351 54.0339 82.2656 53.3034C80.5699 53.9556 77.5699 54.8687 73.7873 54.4774C72.1178 54.06 71.1786 53.7817 70.9178 53.6947C70.8308 51.5208 70.9699 46.6513 72.2221 44.5643Z" fill="white"/>
<path d="M70.1743 39.3914C70.2358 40.4635 70.6203 42.8631 70.9632 43.8972C70.4839 43.2137 69.8499 41.7041 69.5928 41.0347C69.5545 41.9644 69.6576 44.08 70.3766 45.1052C69.7175 44.1655 68.7751 42.6703 68.3863 42.0403C68.5227 43.2191 68.9604 45.8118 69.6195 46.7515C68.8405 45.6409 67.4761 43.847 66.8913 43.0888C66.9703 43.8831 67.6292 46.14 69.632 48.8138C68.9308 48.5409 66.7869 45.8173 65.8026 44.4896C65.7925 45.0809 66.4676 47.2096 69.2494 50.994C68.1032 50.2685 65.6271 47.2681 64.5323 45.8586C64.4366 46.4036 65.1887 48.5208 68.9624 52.6292C67.4548 51.6154 64.9846 49.6836 63.1329 46.3621C62.5159 44.7555 62.2045 43.8269 62.1259 43.5634C63.8558 42.2439 67.7466 39.5646 70.1743 39.3914Z" fill="white"/>
<path d="M72.1165 33.9777C71.385 34.7639 69.7948 36.577 69.2855 37.5401C69.4473 36.7211 70.0986 35.2188 70.404 34.5701C69.7063 35.1857 68.2501 36.7239 68.0074 37.9524C68.2299 36.8263 68.6573 35.1114 68.8432 34.3947C68.0865 35.3089 66.5174 37.4187 66.2949 38.5448C66.5578 37.214 66.909 34.9876 67.0517 34.0408C66.533 34.6475 65.3594 36.6847 64.8147 39.9808C64.5265 39.2857 65.0096 35.8533 65.2871 34.2241C64.8532 34.6258 63.7834 36.5861 62.9758 41.213C62.7066 39.8834 63.1596 36.0197 63.4198 34.2541C62.9601 34.5621 61.9518 36.57 61.5966 42.1371C61.2854 40.3472 60.9711 37.2272 62.088 33.5921C62.8211 32.0351 63.2761 31.1677 63.4119 30.9286C65.5615 31.2646 70.3118 32.3448 72.1165 33.9777Z" fill="white"/>
<path d="M78.0576 32.8399C76.9929 32.7001 74.5935 32.4566 73.5136 32.6004C74.2746 32.2571 75.876 31.9162 76.5817 31.7886C75.6755 31.5774 73.5778 31.2836 72.4364 31.7985C73.4827 31.3265 75.1275 30.6798 75.8191 30.4155C74.6355 30.3294 72.0067 30.2752 70.9605 30.7473C72.197 30.1894 74.2141 29.184 75.0681 28.751C74.2731 28.6804 71.9329 28.9062 68.9321 30.3745C69.3311 29.7366 72.4071 28.139 73.8952 27.4199C73.3163 27.2995 71.099 27.5653 66.8616 29.5915C67.7885 28.601 71.1985 26.7286 72.7876 25.9163C72.27 25.7205 70.0496 26.064 65.3088 29.0042C66.5863 27.7124 68.9454 25.6464 72.5542 24.4475C74.2477 24.1414 75.2182 24.0088 75.4918 23.9808C76.465 25.9266 78.3408 30.4226 78.0576 32.8399Z" fill="white"/>
<path d="M82.2738 36.3965C81.7808 35.4426 80.6112 33.3335 79.8768 32.5288C80.593 32.9577 81.787 34.078 82.2945 34.5846C81.9508 33.72 80.9946 31.8299 79.9203 31.1866C80.9051 31.7763 82.3749 32.7577 82.9867 33.1747C82.3818 32.1537 80.9258 29.9643 79.941 29.3747C81.1048 30.0715 83.0818 31.1539 83.9248 31.608C83.5289 30.9149 82.0077 29.1222 79.0892 27.4964C79.8408 27.46 82.9084 29.0737 84.3482 29.8851C84.1165 29.341 82.6327 27.6721 78.5503 25.3495C79.8927 25.5451 83.3765 27.2763 84.9505 28.1174C84.8158 27.5806 83.2664 25.9536 78.1462 23.7393C79.9361 24.0508 82.979 24.8085 86.0233 27.0874C87.2413 28.3032 87.9041 29.0244 88.0833 29.233C87.0411 31.1428 84.4203 35.2492 82.2738 36.3965Z" fill="white"/>
<path d="M82.4358 42.0487C82.8083 41.0415 83.5781 38.756 83.6774 37.6711C83.8434 38.4892 83.8205 40.1264 83.7883 40.8427C84.1954 40.006 84.9472 38.0258 84.6983 36.7986C84.9264 37.9235 85.1921 39.6708 85.2964 40.4038C85.6429 39.2688 86.2789 36.7176 86.0508 35.5926C86.3204 36.9221 86.8533 39.112 87.0861 40.0408C87.3313 39.2813 87.6302 36.9492 86.8642 33.6975C87.3978 34.2281 88.2732 37.5819 88.6442 39.1925C88.89 38.6546 89.1227 36.4336 88.0871 31.8524C88.8473 32.9759 89.9165 36.7162 90.356 38.446C90.6618 37.9847 90.8194 35.7434 89.0043 30.4686C89.9805 32.0007 91.4716 34.7594 91.84 38.5443C91.7628 40.2635 91.6767 41.2392 91.6434 41.5122C89.5301 42.0295 84.73 42.8611 82.4358 42.0487Z" fill="white"/>
<path d="M77.9504 45.3992C78.986 45.1152 81.2921 44.4094 82.2318 43.8582C81.6635 44.4697 80.3195 45.4048 79.7185 45.796C80.6357 45.6394 82.6832 45.0969 83.5357 44.1797C82.7542 45.0205 81.4888 46.2542 80.9538 46.766C82.0782 46.3865 84.5223 45.4173 85.3038 44.5765C84.3802 45.5701 82.9107 47.279 82.2913 48.0092C83.0516 47.7661 85.1212 46.6505 87.318 44.1337C87.1975 44.8764 84.9815 47.5417 83.8886 48.7814C84.4689 48.6679 86.4098 47.5633 89.5301 44.0528C89.0598 45.3251 86.6424 48.3731 85.4925 49.738C86.0455 49.7178 87.9591 48.5403 91.1891 43.9921C90.5124 45.6781 89.1389 48.4971 86.2771 51.0014C84.8347 51.9402 83.9916 52.4386 83.7503 52.5705C82.0987 51.1542 78.6266 47.7372 77.9504 45.3992Z" fill="white"/>
<path d="M82.2656 39.2165C82.2656 42.4581 79.6377 45.086 76.396 45.086C73.1544 45.086 70.5265 42.4581 70.5265 39.2165C70.5265 35.9748 73.1544 33.3469 76.396 33.3469C79.6377 33.3469 82.2656 35.9748 82.2656 39.2165Z" fill="white"/>
<path d="M34.5037 58.1738H39.1993C38.9384 63.5651 40.608 74.3477 49.3732 74.3477C58.1384 74.3477 60.2428 63.5651 60.1993 58.1738H64.2428C64.7645 64.7825 62.5211 77.9999 49.3732 77.9999C36.2254 77.9999 33.9819 64.7825 34.5037 58.1738Z" fill="#20D41B"/>
<path fill-rule="evenodd" clip-rule="evenodd" d="M64.2428 58.1738H63.3921C61.3051 72.3912 56.8352 74.9999 53.0877 76.1738C44.7399 78.6521 38.2224 72.6956 36.2028 69.2608C38.1853 73.9773 42.1199 77.9999 49.3732 77.9999C62.5211 77.9999 64.7645 64.7825 64.2428 58.1738Z" fill="#96EB94"/>
<path fill-rule="evenodd" clip-rule="evenodd" d="M39.1993 58.1738H36.3921C36.1312 63.4102 37.7747 73.8831 46.4355 73.8831C40.2244 71.7618 38.9707 62.898 39.1993 58.1738Z" fill="#198E19"/>
<path d="M86.6775 19.8262L91.3731 19.8262C91.1123 14.4349 92.7818 3.65226 101.547 3.65226C110.312 3.65226 112.417 14.4349 112.373 19.8262L116.417 19.8262C116.938 13.2175 114.695 8.33754e-05 101.547 8.45248e-05C88.3992 8.56742e-05 86.1558 13.2175 86.6775 19.8262Z" fill="#20D41B"/>
<path fill-rule="evenodd" clip-rule="evenodd" d="M116.417 19.8262L115.566 19.8262C113.479 5.60878 109.009 3.00008 105.262 1.82617C96.9137 -0.652089 90.3962 5.30443 88.3766 8.73922C90.3591 4.02272 94.2937 8.51589e-05 101.547 8.45248e-05C114.695 8.33754e-05 116.938 13.2175 116.417 19.8262Z" fill="#96EB94"/>
<path fill-rule="evenodd" clip-rule="evenodd" d="M91.3731 19.8262L88.5659 19.8262C88.305 14.5898 89.9485 4.11692 98.6094 4.11691C92.3982 6.2382 91.1446 15.102 91.3731 19.8262Z" fill="#198E19"/>
<path d="M135.199 19.8262L139.895 19.8262C139.634 14.4349 141.303 3.65226 150.069 3.65226C158.834 3.65226 160.938 14.4349 160.895 19.8262L164.938 19.8262C165.46 13.2175 163.216 8.33754e-05 150.069 8.45248e-05C136.921 8.56742e-05 134.677 13.2175 135.199 19.8262Z" fill="#20D41B"/>
<path fill-rule="evenodd" clip-rule="evenodd" d="M164.938 19.8262L164.087 19.8262C162 5.60878 157.531 3.00008 153.783 1.82617C145.435 -0.652089 138.918 5.30443 136.898 8.73922C138.881 4.02272 142.815 8.51589e-05 150.069 8.45248e-05C163.216 8.33754e-05 165.46 13.2175 164.938 19.8262Z" fill="#96EB94"/>
<path fill-rule="evenodd" clip-rule="evenodd" d="M139.895 19.8262L137.087 19.8262C136.827 14.5898 138.47 4.11692 147.131 4.11691C140.92 6.2382 139.666 15.102 139.895 19.8262Z" fill="#198E19"/>
</svg>
