<svg width="34" height="33" viewBox="0 0 34 33" fill="none" xmlns="http://www.w3.org/2000/svg">
<path d="M26.9167 5.5H25.5V4.125C25.5 3.3 24.9333 2.75 24.0833 2.75C23.2333 2.75 22.6667 3.3 22.6667 4.125V5.5H11.3333V4.125C11.3333 3.3 10.7667 2.75 9.91667 2.75C9.06667 2.75 8.5 3.3 8.5 4.125V5.5H7.08333C4.675 5.5 2.83333 7.2875 2.83333 9.625V11H31.1667V9.625C31.1667 7.2875 29.325 5.5 26.9167 5.5ZM2.83333 26.125C2.83333 28.4625 4.675 30.25 7.08333 30.25H26.9167C29.325 30.25 31.1667 28.4625 31.1667 26.125V13.75H2.83333V26.125ZM24.0833 16.5C24.9333 16.5 25.5 17.05 25.5 17.875C25.5 18.7 24.9333 19.25 24.0833 19.25C23.2333 19.25 22.6667 18.7 22.6667 17.875C22.6667 17.05 23.2333 16.5 24.0833 16.5ZM24.0833 22C24.9333 22 25.5 22.55 25.5 23.375C25.5 24.2 24.9333 24.75 24.0833 24.75C23.2333 24.75 22.6667 24.2 22.6667 23.375C22.6667 22.55 23.2333 22 24.0833 22ZM17 16.5C17.85 16.5 18.4167 17.05 18.4167 17.875C18.4167 18.7 17.85 19.25 17 19.25C16.15 19.25 15.5833 18.7 15.5833 17.875C15.5833 17.05 16.15 16.5 17 16.5ZM17 22C17.85 22 18.4167 22.55 18.4167 23.375C18.4167 24.2 17.85 24.75 17 24.75C16.15 24.75 15.5833 24.2 15.5833 23.375C15.5833 22.55 16.15 22 17 22ZM9.91667 16.5C10.7667 16.5 11.3333 17.05 11.3333 17.875C11.3333 18.7 10.7667 19.25 9.91667 19.25C9.06667 19.25 8.5 18.7 8.5 17.875C8.5 17.05 9.06667 16.5 9.91667 16.5ZM9.91667 22C10.7667 22 11.3333 22.55 11.3333 23.375C11.3333 24.2 10.7667 24.75 9.91667 24.75C9.06667 24.75 8.5 24.2 8.5 23.375C8.5 22.55 9.06667 22 9.91667 22Z" fill="black"/>
</svg>
