<svg width="104" height="80" viewBox="0 0 104 80" fill="none" xmlns="http://www.w3.org/2000/svg">
<path fill-rule="evenodd" clip-rule="evenodd" d="M41.7082 0.0765056C40.4968 0.284784 37.7125 1.34676 36.6961 1.98828C33.5869 3.95038 31.3388 7.62738 30.7906 11.6481L30.4587 14.0812H20.9825C10.7989 14.0812 9.73136 14.1958 6.99096 15.5842C3.94154 17.129 1.3939 20.3474 0.494621 23.7914C0.0640347 25.4412 0.0153569 27.7092 0.000892815 46.811C-0.0102334 61.266 0.0823939 68.469 0.292124 69.4742C1.35691 74.5789 5.61214 78.7634 10.6754 79.6849C12.988 80.1056 91.019 80.1048 93.3246 79.6838C98.4126 78.7547 102.644 74.5944 103.709 69.4742C103.917 68.4718 104.01 61.2246 103.999 46.811C103.985 27.7092 103.936 25.4412 103.505 23.7914C102.294 19.1539 98.3784 15.3704 93.7794 14.3941C92.8537 14.1978 88.8154 14.0812 82.9232 14.0812H73.5413L73.2153 11.6909C72.857 9.06336 71.842 6.5896 70.377 4.7732C69.1002 3.19012 66.5926 1.39709 64.6561 0.682711C63.0567 0.0926341 62.5588 0.0645477 52.6954 0.0119913C47.0349 -0.0183189 42.0907 0.0108797 41.7082 0.0765056ZM64.1771 5.19588C67.5403 6.87602 68.7292 9.03138 68.9589 13.8666C69.083 16.4746 69.2129 17.2266 69.6067 17.6206C70.0574 18.0716 71.0715 18.125 81.5636 18.2524L93.0281 18.3914L94.6144 19.17C96.6046 20.1472 98.525 22.2422 99.1976 24.1698C99.6704 25.5255 99.7038 27.0468 99.7038 47.1723V68.7232L98.9803 70.2654C97.9701 72.4185 96.7498 73.7018 94.7743 74.6887L93.0784 75.536H52H10.9216L9.22567 74.6887C7.2502 73.7018 6.02993 72.4185 5.01967 70.2654L4.29618 68.7232V47.1723C4.29618 27.0468 4.32956 25.5255 4.80243 24.1698C5.47501 22.2422 7.3954 20.1472 9.38561 19.17L10.9719 18.3914L22.4364 18.2524C32.8957 18.1256 33.9438 18.0705 34.3896 17.6242C34.781 17.2327 34.912 16.4549 35.0458 13.7311C35.1799 10.9999 35.3329 10.0953 35.8199 9.15318C36.7704 7.31426 37.9837 6.11464 39.8229 5.19588L41.5188 4.34858H52H62.4812L64.1771 5.19588ZM47.2399 22.2861C41.9118 23.3473 36.4853 26.7659 33.2061 31.1273C26.1896 40.4587 26.9345 53.2499 34.9871 61.7106C37.9731 64.8482 41.9811 67.1823 46.3818 68.3464C49.4084 69.1472 54.6216 69.138 57.7022 68.3269C70.9744 64.8323 78.6421 51.0995 74.4823 38.2738C71.7839 29.9535 64.9816 23.8979 56.4956 22.2611C54.0038 21.7803 49.72 21.792 47.2399 22.2861ZM10.684 22.9663C9.94137 23.2672 9.52969 23.7853 9.29688 24.7121C9.14334 25.3241 9.26739 25.6286 9.9486 26.3096C10.7608 27.1216 10.8771 27.1508 13.3018 27.1508C16.196 27.1508 17.0555 26.8538 17.5395 25.6862C17.9567 24.679 17.4905 23.6154 16.3876 23.0573C15.6219 22.6699 11.5747 22.6054 10.684 22.9663ZM55.8363 26.4723C57.0588 26.7198 59.1016 27.447 60.5892 28.1644C62.7496 29.2063 63.5866 29.8131 65.4569 31.6932C67.9609 34.21 69.234 36.1657 70.2229 39.0149C71.9889 44.1029 71.5658 49.596 69.0273 54.5413C67.6018 57.3184 63.7276 61.1331 60.901 62.5426C55.176 65.3974 48.824 65.3974 43.099 62.5426C40.2629 61.1283 36.3929 57.3143 34.9802 54.5413C33.0167 50.6874 32.3416 47.13 32.8306 43.2136C33.4183 38.506 35.0611 35.193 38.5431 31.6932C40.412 29.8148 41.2523 29.2052 43.4108 28.1627C47.6268 26.1267 51.5146 25.5978 55.8363 26.4723ZM49.7747 32.4673C47.5195 32.8305 44.5195 34.4116 42.7724 36.1582C33.9271 45.0008 41.3374 59.7432 53.8776 58.2505C61.2829 57.369 66.562 49.5187 64.682 42.183C63.3977 37.1713 59.0654 33.2401 53.9471 32.4423C51.9193 32.1261 51.8943 32.1264 49.7747 32.4673ZM55.1409 37.1638C57.2594 37.9563 58.7692 39.36 59.8384 41.5315C60.6073 43.0923 60.7463 43.6802 60.7463 45.3648C60.7463 47.0502 60.6073 47.6369 59.8362 49.2025C56.6096 55.7551 47.5439 55.806 44.2194 49.2907C43.3805 47.6467 43.2537 47.1331 43.2537 45.3865C43.2537 41.7312 45.4594 38.4546 48.7801 37.1774C50.6646 36.4527 53.225 36.4472 55.1409 37.1638Z" fill="#D91B49"/>
</svg>
