<svg width="48" height="48" viewBox="0 0 48 48" fill="none" xmlns="http://www.w3.org/2000/svg">
<path d="M33.137 31.1839L42.8599 14.5279L33.137 8.9679V31.1839Z" fill="#6EFF24"/>
<path d="M33.1369 40.792L47.4586 16.232C47.9944 15.3132 48.1397 14.2215 47.8623 13.1968C47.5849 12.1721 46.9077 11.2984 45.9795 10.768L33.1046 3.40796C33.1677 3.76876 33.1256 6.70076 33.1369 7.12796L43.668 13.144C44.0386 13.3564 44.3088 13.7057 44.4194 14.1152C44.53 14.5246 44.472 14.9608 44.258 15.328L33.1369 34.392V40.792Z" fill="#6EFF24"/>
<path d="M4.04109 48H27.4794C28.0101 48 28.5356 47.8965 29.0259 47.6955C29.5162 47.4945 29.9617 47.1999 30.3369 46.8284C30.7122 46.457 31.0098 46.016 31.2129 45.5307C31.416 45.0454 31.5205 44.5253 31.5205 44V4C31.5205 3.47471 31.416 2.95457 31.2129 2.46927C31.0098 1.98396 30.7122 1.54301 30.3369 1.17157C29.9617 0.800139 29.5162 0.505501 29.0259 0.304482C28.5356 0.103463 28.0101 0 27.4794 0H4.04109C2.96933 0 1.94146 0.421427 1.18361 1.17157C0.425757 1.92172 0 2.93913 0 4V44C0 45.0609 0.425757 46.0783 1.18361 46.8284C1.94146 47.5786 2.96933 48 4.04109 48ZM4.84931 7.92C5.62549 7.76226 6.33785 7.38257 6.89813 6.82798C7.45842 6.2734 7.842 5.56828 8.00137 4.8H23.5192C23.6785 5.56828 24.0621 6.2734 24.6224 6.82798C25.1827 7.38257 25.8951 7.76226 26.6712 7.92V31.2H4.84931V7.92ZM4.84931 36H26.6712V40.08C25.8951 40.2377 25.1827 40.6174 24.6224 41.172C24.0621 41.7266 23.6785 42.4317 23.5192 43.2H8.00137C7.842 42.4317 7.45842 41.7266 6.89813 41.172C6.33785 40.6174 5.62549 40.2377 4.84931 40.08V36Z" fill="#6EFF24"/>
<path d="M9.69897 39.9999C10.1455 39.9999 10.5075 39.6417 10.5075 39.1999C10.5075 38.7581 10.1455 38.3999 9.69897 38.3999C9.25241 38.3999 8.89041 38.7581 8.89041 39.1999C8.89041 39.6417 9.25241 39.9999 9.69897 39.9999Z" fill="#6EFF24"/>
<path d="M19.6801 20.032L18.9931 9.15198C18.9854 9.04287 18.9557 8.9364 18.9057 8.83885C18.8557 8.7413 18.7865 8.65464 18.7022 8.58398L16.2775 6.58398C16.1323 6.46425 15.9493 6.39868 15.7603 6.39868C15.5713 6.39868 15.3882 6.46425 15.243 6.58398L12.8183 8.58398C12.7349 8.65365 12.6662 8.73902 12.6162 8.83514C12.5663 8.93126 12.5361 9.03624 12.5274 9.14398L11.703 20.04C11.11 20.1484 10.5791 20.4717 10.2139 20.9467C9.84868 21.4217 9.67543 22.0144 9.72793 22.609C9.78043 23.2037 10.0549 23.7576 10.4978 24.1627C10.9407 24.5678 11.5202 24.795 12.1233 24.8H13.3356V26.8C13.3356 27.4365 13.5911 28.0469 14.0458 28.497C14.5005 28.9471 15.1172 29.2 15.7603 29.2C16.4033 29.2 17.02 28.9471 17.4748 28.497C17.9295 28.0469 18.1849 27.4365 18.1849 26.8V24.8H19.3972C20.0143 24.801 20.6084 24.5682 21.0576 24.1496C21.5069 23.7309 21.7774 23.1579 21.8135 22.5482C21.8497 21.9385 21.6489 21.3381 21.2522 20.8703C20.8555 20.4024 20.2931 20.1025 19.6801 20.032ZM16.5685 20V18.4C16.5685 18.1878 16.4833 17.9843 16.3318 17.8343C16.1802 17.6843 15.9746 17.6 15.7603 17.6C15.5459 17.6 15.3403 17.6843 15.1888 17.8343C15.0372 17.9843 14.952 18.1878 14.952 18.4V20H13.3275L14.1196 9.59998L15.7603 8.23998L17.4009 9.59198L18.0637 20H16.5685ZM12.9315 40H21.8219C22.0363 40 22.2418 39.9157 22.3934 39.7657C22.545 39.6156 22.6301 39.4122 22.6301 39.2C22.6301 38.9878 22.545 38.7843 22.3934 38.6343C22.2418 38.4843 22.0363 38.4 21.8219 38.4H12.9315C12.7171 38.4 12.5116 38.4843 12.36 38.6343C12.2084 38.7843 12.1233 38.9878 12.1233 39.2C12.1233 39.4122 12.2084 39.6156 12.36 39.7657C12.5116 39.9157 12.7171 40 12.9315 40ZM42.8356 36.8C43.0499 36.8 43.2555 36.7157 43.4071 36.5657C43.5587 36.4156 43.6438 36.2122 43.6438 36V35.2H44.452C44.6664 35.2 44.872 35.1157 45.0235 34.9657C45.1751 34.8156 45.2603 34.6122 45.2603 34.4C45.2603 34.1878 45.1751 33.9843 45.0235 33.8343C44.872 33.6843 44.6664 33.6 44.452 33.6H43.6438V32.8C43.6438 32.5878 43.5587 32.3843 43.4071 32.2343C43.2555 32.0843 43.0499 32 42.8356 32C42.6212 32 42.4157 32.0843 42.2641 32.2343C42.1125 32.3843 42.0274 32.5878 42.0274 32.8V33.6H41.2192C41.0048 33.6 40.7992 33.6843 40.6477 33.8343C40.4961 33.9843 40.4109 34.1878 40.4109 34.4C40.4109 34.6122 40.4961 34.8156 40.6477 34.9657C40.7992 35.1157 41.0048 35.2 41.2192 35.2H42.0274V36C42.0274 36.2122 42.1125 36.4156 42.2641 36.5657C42.4157 36.7157 42.6212 36.8 42.8356 36.8Z" fill="#6EFF24"/>
</svg>
