<svg width="46" height="46" viewBox="0 0 46 46" fill="none" xmlns="http://www.w3.org/2000/svg">
<path d="M11.7727 15.915C7.48733 15.915 4 12.3447 4 7.95748C4 3.57026 7.48733 0 11.7727 0C13.8318 0.00280074 15.8059 0.840863 17.2627 2.33066C18.7195 3.82046 19.5403 5.84058 19.5453 7.94864C19.5449 8.18299 19.4537 8.40761 19.2919 8.57333C19.13 8.73904 18.9106 8.83234 18.6817 8.83281L13.626 8.83811L16.8819 12.7974C17.0284 12.977 17.0996 13.2086 17.0802 13.4417C17.0608 13.6748 16.9523 13.8907 16.7783 14.0423C15.3773 15.2508 13.6046 15.914 11.7727 15.915ZM11.7727 1.76833C8.43905 1.76833 5.72726 4.54461 5.72726 7.95748C5.72939 9.06036 6.019 10.1427 6.56621 11.0927C7.11341 12.0427 7.89837 12.8259 8.84004 13.3616C9.78172 13.8972 10.846 14.1659 11.9229 14.1397C12.9999 14.1136 14.0505 13.7937 14.9664 13.213L11.1129 8.52689C11.0072 8.39802 10.9397 8.24104 10.918 8.07429C10.8963 7.90755 10.9215 7.73793 10.9905 7.58528C11.0595 7.43263 11.1696 7.30326 11.3078 7.21228C11.446 7.12131 11.6066 7.07249 11.7709 7.07155L17.7542 7.06448C17.5433 5.59402 16.8232 4.25015 15.7252 3.27794C14.6271 2.30573 13.2244 1.76996 11.7727 1.76833Z" fill="#6EFF24"/>
<path d="M11.7727 8.84161C11.5436 8.84161 11.3239 8.74846 11.162 8.58264C11 8.41683 10.909 8.19194 10.909 7.95745V4.42079C10.909 4.18629 11 3.9614 11.162 3.79559C11.3239 3.62977 11.5436 3.53662 11.7727 3.53662C12.0017 3.53662 12.2214 3.62977 12.3833 3.79559C12.5453 3.9614 12.6363 4.18629 12.6363 4.42079V7.95745C12.6363 8.19194 12.5453 8.41683 12.3833 8.58264C12.2214 8.74846 12.0017 8.84161 11.7727 8.84161Z" fill="#6EFF24"/>
<path d="M11.7727 12.3782C11.5436 12.3782 11.3239 12.2851 11.162 12.1193C11 11.9535 10.909 11.7286 10.909 11.4941V7.95741C10.909 7.72291 11 7.49802 11.162 7.33221C11.3239 7.1664 11.5436 7.07324 11.7727 7.07324C12.0017 7.07324 12.2214 7.1664 12.3833 7.33221C12.5453 7.49802 12.6363 7.72291 12.6363 7.95741V11.4941C12.6363 11.7286 12.5453 11.9535 12.3833 12.1193C12.2214 12.2851 12.0017 12.3782 11.7727 12.3782Z" fill="#6EFF24"/>
<path d="M11.7727 8.84157H8.31814C8.08909 8.84157 7.86943 8.74842 7.70746 8.58261C7.5455 8.41679 7.45451 8.1919 7.45451 7.95741C7.45451 7.72291 7.5455 7.49802 7.70746 7.33221C7.86943 7.1664 8.08909 7.07324 8.31814 7.07324H11.7727C12.0017 7.07324 12.2214 7.1664 12.3833 7.33221C12.5453 7.49802 12.6363 7.72291 12.6363 7.95741C12.6363 8.1919 12.5453 8.41679 12.3833 8.58261C12.2214 8.74842 12.0017 8.84157 11.7727 8.84157Z" fill="#6EFF24"/>
<path d="M11.7727 8.84178C11.602 8.84174 11.4351 8.78993 11.2932 8.69288C11.1513 8.59584 11.0406 8.45791 10.9752 8.29652C10.9098 8.13513 10.8925 7.95751 10.9256 7.78609C10.9587 7.61467 11.0407 7.45714 11.1612 7.33339L13.6036 4.8312C13.7664 4.67015 13.9846 4.58103 14.211 4.58304C14.4375 4.58506 14.6541 4.67804 14.8142 4.84197C14.9743 5.00591 15.0652 5.22766 15.0671 5.45949C15.0691 5.69132 14.982 5.91466 14.8247 6.08141L12.3841 8.58183C12.3039 8.6642 12.2086 8.72957 12.1037 8.77417C11.9988 8.81878 11.8863 8.84175 11.7727 8.84178Z" fill="#6EFF24"/>
<path d="M9.33033 11.3423C9.15965 11.3422 8.99281 11.2904 8.85087 11.1934C8.70893 11.0963 8.59827 10.9584 8.53284 10.797C8.46742 10.6356 8.45018 10.458 8.48329 10.2866C8.5164 10.1152 8.59838 9.95763 8.71888 9.83388L11.1612 7.33169C11.3241 7.17063 11.5423 7.08152 11.7687 7.08353C11.9951 7.08554 12.2117 7.17853 12.3719 7.34246C12.532 7.50639 12.6228 7.72815 12.6248 7.95998C12.6268 8.1918 12.5397 8.41515 12.3824 8.5819L9.94005 11.0823C9.86033 11.1649 9.76537 11.2304 9.6607 11.275C9.55602 11.3196 9.44372 11.3425 9.33033 11.3423Z" fill="#6EFF24"/>
<path d="M11.7727 8.84178C11.5435 8.84181 11.3237 8.74899 11.1612 8.5836L8.71887 6.08141C8.56155 5.91466 8.47451 5.69132 8.47647 5.45949C8.47844 5.22766 8.56927 5.00591 8.72939 4.84197C8.88952 4.67804 9.10612 4.58506 9.33257 4.58304C9.55901 4.58103 9.77716 4.67015 9.94004 4.8312L12.3841 7.33162C12.5052 7.45528 12.5877 7.61296 12.6212 7.78468C12.6546 7.9564 12.6375 8.13443 12.572 8.29618C12.5065 8.45794 12.3956 8.59614 12.2533 8.69327C12.111 8.7904 11.9437 8.84209 11.7727 8.84178Z" fill="#6EFF24"/>
<path d="M11.7727 8.84161C11.5436 8.84161 11.3239 8.74846 11.162 8.58264C11 8.41683 10.909 8.19194 10.909 7.95745V4.42079C10.909 4.18629 11 3.9614 11.162 3.79559C11.3239 3.62977 11.5436 3.53662 11.7727 3.53662C12.0017 3.53662 12.2214 3.62977 12.3833 3.79559C12.5453 3.9614 12.6363 4.18629 12.6363 4.42079V7.95745C12.6363 8.19194 12.5453 8.41683 12.3833 8.58264C12.2214 8.74846 12.0017 8.84161 11.7727 8.84161Z" fill="#6EFF24"/>
<path d="M11.7727 12.3782C11.5436 12.3782 11.3239 12.2851 11.162 12.1193C11 11.9535 10.909 11.7286 10.909 11.4941V7.95741C10.909 7.72291 11 7.49802 11.162 7.33221C11.3239 7.1664 11.5436 7.07324 11.7727 7.07324C12.0017 7.07324 12.2214 7.1664 12.3833 7.33221C12.5453 7.49802 12.6363 7.72291 12.6363 7.95741V11.4941C12.6363 11.7286 12.5453 11.9535 12.3833 12.1193C12.2214 12.2851 12.0017 12.3782 11.7727 12.3782Z" fill="#6EFF24"/>
<path d="M11.7727 8.84157H8.31814C8.08909 8.84157 7.86943 8.74842 7.70746 8.58261C7.5455 8.41679 7.45451 8.1919 7.45451 7.95741C7.45451 7.72291 7.5455 7.49802 7.70746 7.33221C7.86943 7.1664 8.08909 7.07324 8.31814 7.07324H11.7727C12.0017 7.07324 12.2214 7.1664 12.3833 7.33221C12.5453 7.49802 12.6363 7.72291 12.6363 7.95741C12.6363 8.1919 12.5453 8.41679 12.3833 8.58261C12.2214 8.74842 12.0017 8.84157 11.7727 8.84157Z" fill="#6EFF24"/>
<path d="M11.7727 8.84178C11.602 8.84174 11.4351 8.78993 11.2932 8.69288C11.1513 8.59584 11.0406 8.45791 10.9752 8.29652C10.9098 8.13513 10.8925 7.95751 10.9256 7.78609C10.9587 7.61467 11.0407 7.45714 11.1612 7.33339L13.6036 4.8312C13.7664 4.67015 13.9846 4.58103 14.211 4.58304C14.4375 4.58506 14.6541 4.67804 14.8142 4.84197C14.9743 5.00591 15.0652 5.22766 15.0671 5.45949C15.0691 5.69132 14.982 5.91466 14.8247 6.08141L12.3841 8.58183C12.3039 8.6642 12.2086 8.72957 12.1037 8.77417C11.9988 8.81878 11.8863 8.84175 11.7727 8.84178Z" fill="#6EFF24"/>
<path d="M9.33033 11.3423C9.15965 11.3422 8.99281 11.2904 8.85087 11.1934C8.70893 11.0963 8.59827 10.9584 8.53284 10.797C8.46742 10.6356 8.45018 10.458 8.48329 10.2866C8.5164 10.1152 8.59838 9.95763 8.71888 9.83388L11.1612 7.33169C11.3241 7.17063 11.5423 7.08152 11.7687 7.08353C11.9951 7.08554 12.2117 7.17853 12.3719 7.34246C12.532 7.50639 12.6228 7.72815 12.6248 7.95998C12.6268 8.1918 12.5397 8.41515 12.3824 8.5819L9.94005 11.0823C9.86033 11.1649 9.76537 11.2304 9.6607 11.275C9.55602 11.3196 9.44372 11.3425 9.33033 11.3423Z" fill="#6EFF24"/>
<path d="M11.7727 8.84165C11.5435 8.84168 11.3237 8.74886 11.1612 8.58347L8.71887 6.08129C8.56155 5.91453 8.47451 5.69119 8.47647 5.45936C8.47844 5.22754 8.56927 5.00578 8.72939 4.84185C8.88952 4.67792 9.10612 4.58493 9.33257 4.58291C9.55901 4.5809 9.77716 4.67002 9.94004 4.83108L12.3841 7.3315C12.5052 7.45515 12.5877 7.61284 12.6212 7.78456C12.6546 7.95628 12.6375 8.1343 12.572 8.29605C12.5065 8.45781 12.3956 8.59601 12.2533 8.69315C12.111 8.79028 11.9437 8.84196 11.7727 8.84165ZM34.0543 8.84165C33.9131 8.84148 33.7742 8.80596 33.6495 8.73818C33.5248 8.6704 33.4182 8.57243 33.339 8.4528C33.2598 8.33318 33.2104 8.19553 33.1951 8.05187C33.1798 7.9082 33.199 7.76288 33.2511 7.62858L36.0147 0.555256C36.0789 0.391354 36.1895 0.250873 36.3324 0.151912C36.4752 0.0529504 36.6437 4.10959e-05 36.8162 0H41.1343C41.3634 0 41.583 0.093153 41.745 0.258966C41.907 0.424779 41.998 0.64967 41.998 0.884165C41.998 1.11866 41.907 1.34355 41.745 1.50936C41.583 1.67518 41.3634 1.76833 41.1343 1.76833H37.4L34.854 8.28639C34.7904 8.45029 34.6801 8.59085 34.5375 8.68985C34.3949 8.78885 34.2266 8.84173 34.0543 8.84165Z" fill="#6EFF24"/>
<path d="M26.4544 45.9997C26.2253 45.9997 26.0056 45.9066 25.8437 45.7408C25.6817 45.575 25.5907 45.3501 25.5907 45.1156V25.664C25.5907 25.4295 25.6817 25.2046 25.8437 25.0388C26.0056 24.8729 26.2253 24.7798 26.4544 24.7798C26.6834 24.7798 26.9031 24.8729 27.065 25.0388C27.227 25.2046 27.318 25.4295 27.318 25.664V45.1156C27.318 45.3501 27.227 45.575 27.065 45.7408C26.9031 45.9066 26.6834 45.9997 26.4544 45.9997Z" fill="white"/>
<path d="M35.9543 45.9996H16.9544C16.7254 45.9996 16.5057 45.9065 16.3438 45.7407C16.1818 45.5748 16.0908 45.3499 16.0908 45.1155C16.0908 44.881 16.1818 44.6561 16.3438 44.4903C16.5057 44.3244 16.7254 44.2313 16.9544 44.2313H35.9543C36.1833 44.2313 36.403 44.3244 36.565 44.4903C36.7269 44.6561 36.8179 44.881 36.8179 45.1155C36.8179 45.3499 36.7269 45.5748 36.565 45.7407C36.403 45.9065 36.1833 45.9996 35.9543 45.9996ZM26.4544 26.5356C26.3292 26.5357 26.2055 26.5079 26.0919 26.4541C25.9782 26.4004 25.8774 26.322 25.7963 26.2244L11.1146 8.54109C11.0077 8.41249 10.939 8.25525 10.9167 8.08796C10.8943 7.92067 10.9192 7.75033 10.9885 7.59708C11.0577 7.44382 11.1683 7.31406 11.3073 7.22314C11.4462 7.13221 11.6077 7.08392 11.7727 7.08398H41.1361C41.301 7.08392 41.4625 7.13221 41.6014 7.22314C41.7404 7.31406 41.851 7.44382 41.9203 7.59708C41.9895 7.75033 42.0144 7.92067 41.992 8.08796C41.9697 8.25525 41.901 8.41249 41.7941 8.54109L27.1124 26.2244C27.0313 26.322 26.9305 26.4004 26.8168 26.4541C26.7032 26.5079 26.5795 26.5357 26.4544 26.5356ZM13.6398 8.85231L26.4544 24.2863L39.2689 8.85231H13.6398Z" fill="white"/>
<path d="M35.0907 15.926H17.8181C17.589 15.926 17.3693 15.8329 17.2074 15.6671C17.0454 15.5013 16.9544 15.2764 16.9544 15.0419C16.9544 14.8074 17.0454 14.5825 17.2074 14.4167C17.3693 14.2509 17.589 14.1577 17.8181 14.1577H35.0907C35.3197 14.1577 35.5394 14.2509 35.7013 14.4167C35.8633 14.5825 35.9543 14.8074 35.9543 15.0419C35.9543 15.2764 35.8633 15.5013 35.7013 15.6671C35.5394 15.8329 35.3197 15.926 35.0907 15.926Z" fill="white"/>
<path d="M23.8635 19.4754C24.3404 19.4754 24.7271 19.0795 24.7271 18.5912C24.7271 18.1029 24.3404 17.707 23.8635 17.707C23.3865 17.707 22.9998 18.1029 22.9998 18.5912C22.9998 19.0795 23.3865 19.4754 23.8635 19.4754Z" fill="white"/>
<path d="M29.0453 21.8782C29.5222 21.8782 29.9089 21.4823 29.9089 20.994C29.9089 20.5057 29.5222 20.1099 29.0453 20.1099C28.5683 20.1099 28.1816 20.5057 28.1816 20.994C28.1816 21.4823 28.5683 21.8782 29.0453 21.8782Z" fill="white"/>
<path d="M25.5907 23.8958C26.0677 23.8958 26.4544 23.4999 26.4544 23.0116C26.4544 22.5233 26.0677 22.1274 25.5907 22.1274C25.1138 22.1274 24.7271 22.5233 24.7271 23.0116C24.7271 23.4999 25.1138 23.8958 25.5907 23.8958Z" fill="white"/>
<path d="M27.318 18.5906C27.795 18.5906 28.1816 18.1947 28.1816 17.7064C28.1816 17.2181 27.795 16.8223 27.318 16.8223C26.841 16.8223 26.4544 17.2181 26.4544 17.7064C26.4544 18.1947 26.841 18.5906 27.318 18.5906Z" fill="white"/>
<path d="M26.4544 45.9997C26.2253 45.9997 26.0056 45.9066 25.8437 45.7408C25.6817 45.575 25.5907 45.3501 25.5907 45.1156V25.664C25.5907 25.4295 25.6817 25.2046 25.8437 25.0388C26.0056 24.8729 26.2253 24.7798 26.4544 24.7798C26.6834 24.7798 26.9031 24.8729 27.065 25.0388C27.227 25.2046 27.318 25.4295 27.318 25.664V45.1156C27.318 45.3501 27.227 45.575 27.065 45.7408C26.9031 45.9066 26.6834 45.9997 26.4544 45.9997Z" fill="white"/>
<path d="M35.9543 46H16.9544C16.7254 46 16.5057 45.9069 16.3438 45.7411C16.1818 45.5753 16.0908 45.3504 16.0908 45.1159C16.0908 44.8814 16.1818 44.6565 16.3438 44.4907C16.5057 44.3249 16.7254 44.2317 16.9544 44.2317H35.9543C36.1833 44.2317 36.403 44.3249 36.565 44.4907C36.7269 44.6565 36.8179 44.8814 36.8179 45.1159C36.8179 45.3504 36.7269 45.5753 36.565 45.7411C36.403 45.9069 36.1833 46 35.9543 46ZM35.0907 15.926H17.8181C17.589 15.926 17.3694 15.8329 17.2074 15.6671C17.0454 15.5013 16.9544 15.2764 16.9544 15.0419C16.9544 14.8074 17.0454 14.5825 17.2074 14.4167C17.3694 14.2509 17.589 14.1577 17.8181 14.1577H35.0907C35.3197 14.1577 35.5394 14.2509 35.7013 14.4167C35.8633 14.5825 35.9543 14.8074 35.9543 15.0419C35.9543 15.2764 35.8633 15.5013 35.7013 15.6671C35.5394 15.8329 35.3197 15.926 35.0907 15.926Z" fill="white"/>
<path d="M23.8635 19.4754C24.3404 19.4754 24.7271 19.0795 24.7271 18.5912C24.7271 18.1029 24.3404 17.707 23.8635 17.707C23.3865 17.707 22.9998 18.1029 22.9998 18.5912C22.9998 19.0795 23.3865 19.4754 23.8635 19.4754Z" fill="white"/>
<path d="M29.0453 21.8782C29.5222 21.8782 29.9089 21.4823 29.9089 20.994C29.9089 20.5057 29.5222 20.1099 29.0453 20.1099C28.5683 20.1099 28.1816 20.5057 28.1816 20.994C28.1816 21.4823 28.5683 21.8782 29.0453 21.8782Z" fill="white"/>
<path d="M25.5907 23.8958C26.0677 23.8958 26.4544 23.4999 26.4544 23.0116C26.4544 22.5233 26.0677 22.1274 25.5907 22.1274C25.1138 22.1274 24.7271 22.5233 24.7271 23.0116C24.7271 23.4999 25.1138 23.8958 25.5907 23.8958Z" fill="white"/>
<path d="M27.318 18.5906C27.795 18.5906 28.1816 18.1947 28.1816 17.7064C28.1816 17.2181 27.795 16.8223 27.318 16.8223C26.841 16.8223 26.4544 17.2181 26.4544 17.7064C26.4544 18.1947 26.841 18.5906 27.318 18.5906Z" fill="white"/>
</svg>
