<svg width="48" height="48" viewBox="0 0 48 48" fill="none" xmlns="http://www.w3.org/2000/svg">
<g clip-path="url(#clip0_100_19)">
<path d="M19.327 26.25C19.0167 26.2289 18.7054 26.2719 18.4124 26.3762C18.1194 26.4805 17.8509 26.6439 17.6237 26.8563C17.3966 27.0687 17.2155 27.3256 17.0917 27.6109C16.968 27.8963 16.9043 28.204 16.9045 28.515C15.877 28.515 14.9245 28.5225 14.107 28.5225C12.8423 28.5359 11.5952 28.8207 10.4501 29.3577C9.30497 29.8947 8.28852 30.6713 7.46947 31.635C6.53573 32.7062 5.84024 33.9635 5.42907 35.3237C5.01791 36.6839 4.90044 38.116 5.08447 39.525C5.30493 41.2054 5.95987 42.7993 6.98461 44.1493C8.00935 45.4993 9.36846 46.5586 10.9278 47.2228C12.487 47.8869 14.1926 48.1329 15.876 47.9365C17.5594 47.74 19.1625 47.1079 20.527 46.1025C21.6453 45.2628 23.006 44.8088 24.4045 44.8088C25.803 44.8088 27.1637 45.2628 28.282 46.1025C29.6464 47.1079 31.2495 47.74 32.9329 47.9365C34.6163 48.1329 36.3219 47.8869 37.8812 47.2228C39.4405 46.5586 40.7996 45.4993 41.8243 44.1493C42.8491 42.7993 43.504 41.2054 43.7245 39.525C43.9085 38.116 43.791 36.6839 43.3799 35.3237C42.9687 33.9635 42.2732 32.7062 41.3395 31.635C40.5204 30.6713 39.504 29.8947 38.3588 29.3577C37.2137 28.8207 35.9667 28.5359 34.702 28.5225C33.8845 28.5225 32.932 28.515 31.9045 28.515C31.9047 28.204 31.8409 27.8963 31.7172 27.6109C31.5934 27.3256 31.4124 27.0687 31.1852 26.8563C30.958 26.6439 30.6896 26.4805 30.3966 26.3762C30.1036 26.2719 29.7923 26.2289 29.482 26.25C29.107 25.905 28.027 24.66 27.682 21.54C28.4084 21.2089 29.089 20.7854 29.707 20.28H29.797C38.4895 20.28 39.922 11.9775 40.132 8.3775C40.1501 8.0713 40.1053 7.76463 40.0003 7.47641C39.8953 7.1882 39.7324 6.92456 39.5215 6.70177C39.3107 6.47898 39.0564 6.30177 38.7744 6.18107C38.4924 6.06037 38.1887 5.99875 37.882 6H35.602C35.617 5.7825 35.6395 5.5725 35.647 5.355C35.6626 5.05141 35.6162 4.74782 35.5104 4.46281C35.4047 4.1778 35.2419 3.91738 35.032 3.6975C34.82 3.47775 34.566 3.30278 34.2852 3.18297C34.0043 3.06316 33.7023 3.00094 33.397 3H15.412C15.1066 3.00094 14.8046 3.06316 14.5237 3.18297C14.2429 3.30278 13.989 3.47775 13.777 3.6975C13.5671 3.91738 13.4042 4.1778 13.2985 4.46281C13.1927 4.74782 13.1463 5.05141 13.162 5.355C13.1695 5.5725 13.192 5.7825 13.207 6H10.927C10.6202 5.99875 10.3165 6.06037 10.0345 6.18107C9.7525 6.30177 9.49823 6.47898 9.28739 6.70177C9.07655 6.92456 8.91361 7.1882 8.80862 7.47641C8.70363 7.76463 8.65882 8.0713 8.67697 8.3775C8.88697 11.9775 10.3195 20.28 19.012 20.28H19.102C19.7199 20.7854 20.4006 21.2089 21.127 21.54C20.782 24.675 19.6945 25.9125 19.327 26.25ZM19.1545 39.105C19.1551 39.1899 19.1388 39.274 19.1066 39.3525C19.0744 39.4311 19.0269 39.5024 18.9669 39.5624C18.9069 39.6224 18.8355 39.6699 18.757 39.7021C18.6785 39.7343 18.5943 39.7506 18.5095 39.75H16.1545V42.105C16.1551 42.1899 16.1388 42.274 16.1066 42.3525C16.0744 42.4311 16.0269 42.5024 15.9669 42.5624C15.9069 42.6224 15.8355 42.6699 15.757 42.7021C15.6785 42.7343 15.5943 42.7506 15.5095 42.75H13.7995C13.7146 42.7506 13.6305 42.7343 13.5519 42.7021C13.4734 42.6699 13.4021 42.6224 13.342 42.5624C13.282 42.5024 13.2345 42.4311 13.2023 42.3525C13.1701 42.274 13.1539 42.1899 13.1545 42.105V39.75H10.7995C10.7146 39.7506 10.6305 39.7343 10.5519 39.7021C10.4734 39.6699 10.4021 39.6224 10.342 39.5624C10.282 39.5024 10.2345 39.4311 10.2023 39.3525C10.1701 39.274 10.1539 39.1899 10.1545 39.105V37.395C10.1539 37.3101 10.1701 37.226 10.2023 37.1475C10.2345 37.0689 10.282 36.9976 10.342 36.9376C10.4021 36.8776 10.4734 36.8301 10.5519 36.7979C10.6305 36.7657 10.7146 36.7494 10.7995 36.75H13.1545V34.395C13.1539 34.3101 13.1701 34.226 13.2023 34.1475C13.2345 34.0689 13.282 33.9976 13.342 33.9376C13.4021 33.8776 13.4734 33.8301 13.5519 33.7979C13.6305 33.7657 13.7146 33.7494 13.7995 33.75H15.5095C15.5943 33.7494 15.6785 33.7657 15.757 33.7979C15.8355 33.8301 15.9069 33.8776 15.9669 33.9376C16.0269 33.9976 16.0744 34.0689 16.1066 34.1475C16.1388 34.226 16.1551 34.3101 16.1545 34.395V36.75H18.5095C18.5943 36.7494 18.6785 36.7657 18.757 36.7979C18.8355 36.8301 18.9069 36.8776 18.9669 36.9376C19.0269 36.9976 19.0744 37.0689 19.1066 37.1475C19.1388 37.226 19.1551 37.3101 19.1545 37.395V39.105ZM37.9045 36.75C38.2011 36.75 38.4911 36.838 38.7378 37.0028C38.9845 37.1676 39.1768 37.4019 39.2903 37.676C39.4038 37.9501 39.4335 38.2517 39.3756 38.5426C39.3178 38.8336 39.1749 39.1009 38.9651 39.3107C38.7553 39.5204 38.4881 39.6633 38.1971 39.7212C37.9061 39.7791 37.6045 39.7494 37.3304 39.6358C37.0564 39.5223 36.8221 39.33 36.6573 39.0834C36.4924 38.8367 36.4045 38.5467 36.4045 38.25C36.4057 37.8525 36.5641 37.4717 36.8451 37.1907C37.1262 36.9096 37.507 36.7512 37.9045 36.75ZM34.1545 33C34.4511 33 34.7411 33.088 34.9878 33.2528C35.2345 33.4176 35.4268 33.6519 35.5403 33.926C35.6538 34.2001 35.6835 34.5017 35.6256 34.7926C35.5678 35.0836 35.4249 35.3509 35.2151 35.5607C35.0053 35.7704 34.7381 35.9133 34.4471 35.9712C34.1561 36.0291 33.8545 35.9994 33.5804 35.8858C33.3064 35.7723 33.0721 35.58 32.9073 35.3334C32.7424 35.0867 32.6545 34.7967 32.6545 34.5C32.6557 34.1025 32.8141 33.7217 33.0951 33.4407C33.3762 33.1596 33.757 33.0012 34.1545 33ZM34.1545 40.5C34.4511 40.5 34.7411 40.588 34.9878 40.7528C35.2345 40.9176 35.4268 41.1519 35.5403 41.426C35.6538 41.7001 35.6835 42.0017 35.6256 42.2926C35.5678 42.5836 35.4249 42.8509 35.2151 43.0607C35.0053 43.2704 34.7381 43.4133 34.4471 43.4712C34.1561 43.5291 33.8545 43.4994 33.5804 43.3858C33.3064 43.2723 33.0721 43.08 32.9073 42.8334C32.7424 42.5867 32.6545 42.2967 32.6545 42C32.6557 41.6025 32.8141 41.2217 33.0951 40.9407C33.3762 40.6596 33.757 40.5012 34.1545 40.5ZM30.4045 36.75C30.7011 36.75 30.9911 36.838 31.2378 37.0028C31.4845 37.1676 31.6768 37.4019 31.7903 37.676C31.9038 37.9501 31.9335 38.2517 31.8756 38.5426C31.8178 38.8336 31.6749 39.1009 31.4651 39.3107C31.2553 39.5204 30.9881 39.6633 30.6971 39.7212C30.4061 39.7791 30.1045 39.7494 29.8304 39.6358C29.5564 39.5223 29.3221 39.33 29.1573 39.0834C28.9924 38.8367 28.9045 38.5467 28.9045 38.25C28.9057 37.8525 29.0641 37.4717 29.3451 37.1907C29.6262 36.9096 30.007 36.7512 30.4045 36.75ZM35.4745 7.5H37.882C37.9837 7.49987 38.0844 7.52044 38.1779 7.56046C38.2714 7.60047 38.3559 7.65909 38.426 7.73276C38.4962 7.80642 38.5506 7.89359 38.586 7.98896C38.6214 8.08433 38.6371 8.1859 38.632 8.2875C38.422 11.925 37.1245 17.7375 31.3345 18.645C33.472 16.0425 34.957 12.1725 35.4745 7.5ZM27.967 15.6525C28.5486 14.895 29.0348 14.0688 29.4145 13.1925C29.4507 13.0967 29.5061 13.0094 29.5774 12.9359C29.6486 12.8624 29.7342 12.8042 29.8288 12.765C29.9234 12.7258 30.025 12.7064 30.1273 12.7079C30.2297 12.7095 30.3307 12.732 30.424 12.774C30.5174 12.8161 30.6011 12.8768 30.6701 12.9525C30.7391 13.0281 30.7919 13.1171 30.8252 13.2139C30.8585 13.3108 30.8716 13.4134 30.8637 13.5154C30.8559 13.6175 30.8272 13.7169 30.7795 13.8075C30.3499 14.7942 29.8035 15.7259 29.152 16.5825C29.0286 16.7396 28.8479 16.8414 28.6496 16.8653C28.4513 16.8892 28.2516 16.8333 28.0945 16.71C27.9373 16.5867 27.8356 16.406 27.8117 16.2077C27.7878 16.0093 27.8436 15.8096 27.967 15.6525ZM26.2795 17.25C26.4278 17.25 26.5728 17.294 26.6961 17.3764C26.8195 17.4588 26.9156 17.5759 26.9724 17.713C27.0291 17.85 27.044 18.0008 27.0151 18.1463C26.9861 18.2918 26.9147 18.4254 26.8098 18.5303C26.7049 18.6352 26.5713 18.7067 26.4258 18.7356C26.2803 18.7645 26.1295 18.7497 25.9925 18.6929C25.8554 18.6361 25.7383 18.54 25.6559 18.4167C25.5735 18.2933 25.5295 18.1483 25.5295 18C25.5295 17.8011 25.6085 17.6103 25.7491 17.4697C25.8898 17.329 26.0806 17.25 26.2795 17.25ZM10.177 8.2875C10.1719 8.1859 10.1875 8.08433 10.2229 7.98896C10.2583 7.89359 10.3128 7.80642 10.3829 7.73276C10.4531 7.65909 10.5375 7.60047 10.631 7.56046C10.7245 7.52044 10.8252 7.49987 10.927 7.5H13.3345C13.852 12.1725 15.337 16.0425 17.4745 18.645C11.677 17.745 10.387 11.925 10.177 8.2875Z" fill="#9124FF"/>
</g>
<defs>
<clipPath id="clip0_100_19">
<rect width="48" height="48" fill="white"/>
</clipPath>
</defs>
</svg>
