<svg width="33" height="33" viewBox="0 0 33 33" fill="none" xmlns="http://www.w3.org/2000/svg">
<path fill-rule="evenodd" clip-rule="evenodd" d="M9.75 20.75V23.3H7.11328C6.88969 23.3 6.67453 23.3893 6.51844 23.5508C6.35812 23.708 6.26953 23.9248 6.26953 24.15C6.26953 24.3752 6.35812 24.592 6.51844 24.7493C6.67453 24.9108 6.88969 25 7.11328 25H14.0742C14.2978 25 14.513 24.9108 14.6691 24.7493C14.8294 24.592 14.918 24.3752 14.918 24.15C14.918 23.9248 14.8294 23.708 14.6691 23.5508C14.513 23.3893 14.2978 23.3 14.0742 23.3H11.4375V20.75H9.75ZM3 19.9V9.7C3 9.2495 3.17719 8.816 3.49359 8.49725C3.81 8.1785 4.24031 8 4.6875 8H16.5C16.9472 8 17.3775 8.1785 17.6939 8.49725C18.0103 8.816 18.1875 9.2495 18.1875 9.7V19.9H3ZM27.4688 11.4C27.5827 11.4 27.6881 11.4468 27.7683 11.5233C27.8442 11.604 27.8906 11.7103 27.8906 11.825C27.8906 11.9398 27.8442 12.046 27.7683 12.1267C27.6881 12.2032 27.5827 12.25 27.4688 12.25H22.4062C22.2923 12.25 22.1869 12.2032 22.1067 12.1267C22.0308 12.046 21.9844 11.9398 21.9844 11.825C21.9844 11.7103 22.0308 11.604 22.1067 11.5233C22.1869 11.4468 22.2923 11.4 22.4062 11.4H27.4688ZM21.5752 8H28.2998C28.7513 8 29.1816 8.1785 29.5022 8.5015C29.8228 8.8245 30 9.258 30 9.71275V25H19.875V9.71275C19.875 9.258 20.0522 8.8245 20.3728 8.5015C20.6934 8.1785 21.1237 8 21.5752 8Z" fill="black"/>
</svg>
