<svg width="33" height="33" viewBox="0 0 33 33" fill="none" xmlns="http://www.w3.org/2000/svg">
<g clip-path="url(#clip0_67_498)">
<path fill-rule="evenodd" clip-rule="evenodd" d="M9.77239 0.90639C9.67753 1.40487 9.57334 1.8645 9.541 1.92769C9.50097 2.0059 9.18137 2.09957 8.54173 2.22069C8.02449 2.31858 7.56355 2.43652 7.51738 2.4827C7.47121 2.52887 7.35481 2.97969 7.25876 3.48453C7.16263 3.98937 7.05637 4.43776 7.02255 4.4809C6.98874 4.52403 6.53905 4.63924 6.02321 4.73683C5.50745 4.8345 5.04703 4.95281 5.00012 4.99965C4.95328 5.04656 4.83495 5.50693 4.73728 6.02265C4.63967 6.53844 4.52446 6.98808 4.48132 7.0219C4.43818 7.05571 3.98975 7.16196 3.48486 7.25808C2.97997 7.35412 2.5291 7.4705 2.48293 7.51667C2.43675 7.56285 2.3188 8.02374 2.2209 8.54093C2.09977 9.18051 2.00608 9.50008 1.92787 9.54011C1.86467 9.57244 1.405 9.67662 0.906475 9.77148C0.407877 9.86633 0 9.96274 0 9.98576C0 10.0087 0.549583 10.5763 1.22134 11.247L2.44267 12.4666L7.45522 7.45452L12.4678 2.44244L11.2481 1.22122C10.5773 0.549531 10.0096 0 9.98669 0C9.96368 0 9.86726 0.407913 9.77239 0.90639ZM8.2894 8.32236C4.94691 11.6648 3.33553 13.3249 3.40753 13.3519C3.46658 13.3741 4.01439 13.5591 4.62487 13.7629L5.73484 14.1336L12.3021 20.6994L18.8694 27.2653L19.2486 28.4123C19.4572 29.0433 19.6496 29.5836 19.6761 29.6131C19.7027 29.6427 21.9698 27.4216 24.7141 24.6773C27.4584 21.9329 29.6886 19.6741 29.67 19.6577C29.6514 19.6413 29.1034 19.4532 28.4522 19.2398L27.2683 18.8518L20.701 12.2932L14.1337 5.73467L13.7544 4.58767C13.5458 3.95674 13.3535 3.41639 13.327 3.38687C13.3004 3.35727 11.0335 5.57826 8.2894 8.32236ZM18.5915 14.4103C24.4955 20.3136 24.8633 20.6966 24.8633 20.9383C24.8633 21.1752 24.7209 21.3375 23.0302 23.0281C21.3395 24.7186 21.1772 24.861 20.9402 24.861C20.6985 24.861 20.3155 24.4932 14.4116 18.5897C8.50762 12.6864 8.13978 12.3035 8.13978 12.0617C8.13978 11.8248 8.28222 11.6625 9.97285 9.97192C11.6636 8.28145 11.8259 8.13901 12.0629 8.13901C12.3046 8.13901 12.6875 8.50682 18.5915 14.4103ZM10.8036 10.8398L9.58429 12.0607L13.9864 16.4816C16.4076 18.9131 18.9634 21.4679 19.666 22.159L20.9435 23.4155L22.1817 22.1774L23.4199 20.9394L17.7594 15.2791C14.6462 12.166 12.0819 9.61883 12.061 9.61883C12.0401 9.61883 11.4743 10.1682 10.8036 10.8398ZM25.5296 25.5636L20.5355 30.5576L21.7551 31.7789C22.4259 32.4505 22.9935 33 23.0164 33C23.0394 33 23.1358 32.5922 23.2307 32.0936C23.3256 31.5951 23.4298 31.1355 23.4621 31.0723C23.5021 30.9941 23.8217 30.9004 24.4614 30.7793C24.9786 30.6814 25.4401 30.5629 25.487 30.516C25.5339 30.4691 25.6522 30.0088 25.7499 29.493C25.8475 28.9773 25.9627 28.5293 26.0058 28.4976C26.049 28.4658 26.494 28.3629 26.9948 28.2689C27.4955 28.175 27.9464 28.0569 27.9967 28.0066C28.047 27.9563 28.1681 27.4931 28.2658 26.9774C28.3634 26.4616 28.4786 26.0136 28.5218 25.9819C28.5649 25.9501 29.0099 25.8472 29.5107 25.7532C30.0114 25.6593 30.4623 25.5412 30.5126 25.4909C30.5629 25.4406 30.6843 24.9763 30.7822 24.4591C30.9035 23.8185 30.9969 23.5002 31.0752 23.4606C31.1384 23.4285 31.5897 23.3261 32.0781 23.233C32.5665 23.1398 32.9812 23.0506 32.9996 23.0347C33.0349 23.0043 30.6272 20.5695 30.5618 20.5695C30.5409 20.5695 28.2764 22.8168 25.5296 25.5636Z" fill="black"/>
</g>
<defs>
<clipPath id="clip0_67_498">
<rect width="33" height="33" fill="white"/>
</clipPath>
</defs>
</svg>
