<svg width="34" height="34" viewBox="0 0 34 34" fill="none" xmlns="http://www.w3.org/2000/svg">
<path d="M16.992 2.83301C14.1901 2.83301 11.4511 3.66387 9.12137 5.22052C6.79168 6.77717 4.9759 8.98971 3.90366 11.5783C2.83142 14.1669 2.55087 17.0154 3.09749 19.7635C3.64412 22.5115 4.99336 25.0358 6.97461 27.017C8.95585 28.9983 11.4801 30.3475 14.2282 30.8941C16.9762 31.4408 19.8247 31.1602 22.4133 30.088C25.0019 29.0157 27.2145 27.1999 28.7711 24.8703C30.3278 22.5406 31.1586 19.8016 31.1586 16.9997C31.1588 15.1392 30.7924 13.297 30.0806 11.5781C29.3687 9.85929 28.3252 8.29751 27.0096 6.98198C25.6941 5.66646 24.1323 4.62295 22.4135 3.91107C20.6946 3.19918 18.8524 2.83285 16.992 2.83301ZM21.4963 24.299C21.4432 24.4312 21.3626 24.5506 21.2596 24.6491C21.1567 24.7476 21.0339 24.8229 20.8995 24.8701C20.7651 24.9172 20.6221 24.9351 20.4802 24.9225C20.3383 24.9099 20.2008 24.8671 20.0768 24.797L16.231 21.8087L13.7627 24.0858C13.7054 24.1282 13.6384 24.1554 13.5679 24.165C13.4973 24.1747 13.4255 24.1664 13.3589 24.141L13.8321 19.9074L13.8473 19.9194L13.8569 19.8358C13.8569 19.8358 20.7773 13.5351 21.0593 13.2667C21.3447 12.999 21.2505 12.9409 21.2505 12.9409C21.2668 12.6143 20.7384 12.9409 20.7384 12.9409L11.569 18.8399L7.75034 17.5394C7.75034 17.5394 7.16384 17.329 7.10859 16.8665C7.05051 16.4075 7.76945 16.1582 7.76945 16.1582L22.9519 10.1267C22.9519 10.1267 24.2 9.57063 24.2 10.4915L21.4963 24.299Z" fill="#84FF0A"/>
</svg>
