<svg width="34" height="34" viewBox="0 0 34 34" fill="none" xmlns="http://www.w3.org/2000/svg">
<path d="M21.3533 2.83301H12.6615C4.72219 2.83301 2.83333 4.72186 2.83333 12.6463V21.3382C2.83333 29.2774 4.7075 31.1663 12.6467 31.1663H21.3385C29.2778 31.1663 31.1667 29.2922 31.1667 21.3529V12.6611C31.1667 4.72186 29.2925 2.83301 21.3533 2.83301ZM25.7066 23.05H23.6406C22.8585 23.05 22.6224 22.4154 21.2205 21.0135C19.9956 19.833 19.4792 19.6854 19.1693 19.6854C18.7414 19.6854 18.6232 19.8034 18.6232 20.3937V22.2531C18.6232 22.7549 18.4609 23.05 17.1476 23.05C15.8732 22.9644 14.6373 22.5772 13.5417 21.9204C12.4462 21.2636 11.5224 20.3559 10.8464 19.2722C9.24142 17.2746 8.12473 14.93 7.5851 12.425C7.5851 12.1151 7.70313 11.8347 8.29344 11.8347H10.3594C10.8906 11.8347 11.0825 12.0708 11.2891 12.6169C12.2925 15.5682 14.0044 18.1359 14.6979 18.1359C14.9635 18.1359 15.0816 18.0179 15.0816 17.3538V14.3139C14.993 12.9268 14.2552 12.8087 14.2552 12.307C14.2649 12.1746 14.3258 12.0512 14.425 11.9631C14.5242 11.8749 14.6539 11.8288 14.7865 11.8347H18.033C18.4757 11.8347 18.6232 12.056 18.6232 12.5873V16.6898C18.6232 17.1325 18.8151 17.28 18.9479 17.28C19.2135 17.28 19.4201 17.1325 19.9071 16.6455C20.9536 15.3693 21.8086 13.9476 22.4453 12.425C22.5103 12.2418 22.6335 12.0849 22.796 11.9783C22.9586 11.8717 23.1516 11.8213 23.3455 11.8347H25.4115C26.0313 11.8347 26.1641 12.1446 26.0313 12.5873C25.2795 14.2707 24.3494 15.8687 23.257 17.3538C23.0356 17.6932 22.9471 17.8703 23.257 18.2687C23.4635 18.5786 24.1867 19.1837 24.6736 19.7592C25.382 20.4657 25.9701 21.2832 26.4149 22.1794C26.592 22.7549 26.2969 23.05 25.7066 23.05Z" fill="#9124FF"/>
</svg>
