<svg width="100" height="100" viewBox="0 0 100 100" fill="none" xmlns="http://www.w3.org/2000/svg">
<path fill-rule="evenodd" clip-rule="evenodd" d="M52.6367 18.9471C66.4607 20.2576 77.2953 29.8365 80.2939 43.3996C80.9254 46.2561 81.0248 51.7294 80.5006 54.7976C77.4486 72.6665 60.1346 84.0629 42.5781 79.7593C41.4502 79.4827 39.5252 78.857 38.3004 78.3689L36.0734 77.4811L28.0855 79.3809C20.4982 81.1851 20.0736 81.2648 19.6191 80.967C19.333 80.7794 19.1406 80.4663 19.1406 80.1882C19.1406 79.9323 19.8813 76.1388 20.7863 71.7586L22.432 63.7942L21.9803 62.9014C21.2857 61.5282 20.3309 58.7102 19.7918 56.4417C19.1895 53.9077 18.9461 48.3025 19.324 45.6701C21.3867 31.3001 32.6105 20.4566 46.9727 18.9583C49.243 18.7213 50.2336 18.7194 52.6367 18.9471ZM26.0592 45.4945C27.907 35.0749 36.5303 26.913 47.0896 25.5891C51.6254 25.0205 57.0139 26.0098 61.2234 28.1839C65.4666 30.3756 69.5947 34.5492 71.7684 38.8457C72.3143 39.9245 73.3742 42.8894 73.6551 44.1233C74.3264 47.0708 74.4359 51.0951 73.9238 53.9993C72.407 62.6033 66.123 69.9248 57.8355 72.7438C55.1848 73.6455 53.4295 73.9119 50.0977 73.9179C45.7131 73.926 43.076 73.3267 39.0293 71.4031C37.9904 70.9093 37.0465 70.5054 36.9316 70.5054C36.8168 70.5054 34.6467 70.9937 32.1092 71.5904C29.5717 72.1873 27.4703 72.6487 27.4395 72.6159C27.4088 72.5831 27.8129 70.4907 28.3377 67.9661C28.8623 65.4415 29.293 63.2204 29.2943 63.0301C29.2957 62.8401 28.9125 61.9171 28.4428 60.9792C26.5373 57.1753 25.7572 53.9268 25.7609 49.8116C25.7621 48.3215 25.8926 46.4336 26.0592 45.4945Z" fill="white"/>
<path d="M41.248 35.5157C41.8236 36.0787 44.5312 42.0469 44.5312 42.7523C44.5312 43.2957 44.3082 43.7117 43.2377 45.1663C42.0578 46.769 42.0563 47.5583 43.2299 49.1442C44.7861 51.2473 48.7609 54.8308 51.3672 56.4806C53.6121 57.9014 54.3029 57.8418 56.15 56.068C56.8186 55.426 57.6057 54.8404 57.8992 54.7667C58.2734 54.6728 59.5203 54.9468 62.0713 55.6836C65.541 56.6858 65.7313 56.7663 66.1725 57.4183C66.8256 58.3832 66.667 59.2495 65.5516 60.8127C63.8166 63.2444 62.1818 64.3082 59.6359 64.6623C54.8885 65.3227 49.3652 62.9854 43.4648 57.8191C39.1818 54.069 36.44 50.3296 35.134 46.4571C34.6135 44.9138 34.5129 44.3159 34.4969 42.671C34.4791 40.8556 34.5225 40.6232 35.109 39.3795C35.54 38.4656 36.1857 37.5817 37.1453 36.592C39.0221 34.6563 40.0846 34.3775 41.248 35.5157Z" fill="white"/>
</svg>
